<?xml version="1.0" standalone="no"?>
<!DOCTYPE svg PUBLIC "-//W3C//DTD SVG 20010904//EN"
 "http://www.w3.org/TR/2001/REC-SVG-20010904/DTD/svg10.dtd">
<svg version="1.0" xmlns="http://www.w3.org/2000/svg"
 width="380.000000pt" height="485.000000pt" viewBox="0 0 380.000000 485.000000"
 preserveAspectRatio="xMidYMid meet">

<g transform="translate(0.000000,485.000000) scale(0.100000,-0.100000)"
fill="#000000" stroke="none">
<path d="M2520 4284 c0 -8 7 -22 15 -31 14 -14 18 -14 34 1 10 9 25 16 34 16
25 0 21 17 -5 24 -43 11 -78 7 -78 -10z"/>
<path d="M2888 4195 c13 -25 62 -72 62 -59 0 6 -16 26 -36 45 -22 20 -32 26
-26 14z"/>
<path d="M1268 4148 c-27 -7 -36 -15 -35 -29 1 -19 24 -25 85 -21 12 0 22 -3
22 -9 0 -5 5 -9 11 -9 5 0 8 4 4 9 -3 6 4 15 15 21 11 6 20 17 20 26 0 19 -28
30 -43 15 -14 -14 -30 -15 -22 -1 7 12 -7 11 -57 -2z"/>
<path d="M2541 4050 c1 -44 6 -70 13 -70 7 0 10 23 8 70 -5 91 -23 91 -21 0z"/>
<path d="M2975 4096 c10 -14 19 -26 22 -26 7 0 -17 39 -28 46 -6 3 -3 -5 6
-20z"/>
<path d="M2596 4048 c3 -4 11 -8 19 -8 7 0 16 -8 18 -17 4 -17 5 -17 6 0 0 9
6 17 11 17 6 0 10 3 10 8 0 4 -16 7 -35 8 -18 0 -32 -3 -29 -8z"/>
<path d="M2680 4049 c0 -5 5 -7 10 -4 6 3 10 8 10 11 0 2 -4 4 -10 4 -5 0 -10
-5 -10 -11z"/>
<path d="M1222 4030 c0 -14 2 -19 5 -12 2 6 2 18 0 25 -3 6 -5 1 -5 -13z"/>
<path d="M1330 4000 c0 -47 2 -50 25 -50 23 0 25 3 25 50 0 47 -2 50 -25 50
-23 0 -25 -3 -25 -50z m30 26 c0 -3 -4 -8 -10 -11 -5 -3 -10 -1 -10 4 0 6 5
11 10 11 6 0 10 -2 10 -4z"/>
<path d="M2550 3955 c0 -8 4 -15 8 -15 5 0 9 7 9 15 0 8 -4 15 -9 15 -4 0 -8
-7 -8 -15z"/>
<path d="M2805 3946 c-27 -6 -45 -15 -39 -18 12 -8 84 9 99 23 11 11 5 11 -60
-5z"/>
<path d="M1241 3934 c0 -11 3 -14 6 -6 3 7 2 16 -1 19 -3 4 -6 -2 -5 -13z"/>
<path d="M1311 3928 c0 -10 -4 -19 -8 -20 -31 -6 -70 -4 -81 5 -7 5 -15 7 -19
4 -3 -4 2 -9 11 -13 9 -3 16 -12 16 -20 0 -8 7 -14 15 -14 8 0 14 -3 13 -7 -3
-16 15 -45 21 -34 4 5 18 12 31 14 40 6 77 24 83 40 8 21 -1 27 -39 27 -23 0
-34 5 -37 18 -4 16 -5 16 -6 0z"/>
<path d="M2448 3923 c12 -2 32 -2 45 0 12 2 2 4 -23 4 -25 0 -35 -2 -22 -4z"/>
<path d="M2533 3923 c9 -2 23 -2 30 0 6 3 -1 5 -18 5 -16 0 -22 -2 -12 -5z"/>
<path d="M1345 3795 c3 -22 7 -58 10 -80 l6 -40 -21 38 c-11 20 -23 37 -25 37
-6 0 43 -110 56 -126 8 -9 6 -11 -8 -8 -10 3 -34 -2 -53 -10 l-35 -15 54 2
c34 1 55 -2 58 -10 3 -9 -4 -10 -28 -3 -22 6 -37 6 -43 0 -7 -7 2 -10 26 -10
29 0 46 -9 79 -40 48 -45 85 -54 74 -19 -5 15 -4 19 4 15 6 -4 11 -18 11 -31
0 -12 7 -25 15 -29 17 -6 18 7 14 114 -2 36 -3 80 -3 98 -1 29 -4 32 -33 32
l-33 0 0 -84 0 -85 -40 36 c-31 28 -41 46 -50 90 -7 30 -9 57 -6 60 3 4 6 1 6
-6 0 -6 9 -21 20 -33 l20 -22 0 21 c0 12 6 24 13 26 6 3 0 6 -15 6 -25 1 -28
5 -28 36 0 41 -20 48 -21 8 -1 -21 -4 -15 -15 22 -12 47 -13 47 -9 10z"/>
<path d="M1222 3730 c-1 -50 2 -68 8 -54 4 11 5 45 0 75 l-8 54 0 -75z"/>
<path d="M1242 3780 c0 -14 2 -19 5 -12 2 6 2 18 0 25 -3 6 -5 1 -5 -13z"/>
<path d="M1565 3701 c-17 -8 -15 -10 15 -11 118 -4 181 -3 186 3 3 3 -2 6 -12
5 -11 0 -53 3 -94 6 -41 3 -84 2 -95 -3z"/>
<path d="M2848 3693 c6 -2 18 -2 25 0 6 3 1 5 -13 5 -14 0 -19 -2 -12 -5z"/>
<path d="M1866 3679 c6 -11 31 -12 37 -1 3 4 -6 8 -19 8 -13 1 -21 -2 -18 -7z"/>
<path d="M2125 3680 c6 -9 -14 -14 -42 -11 -7 1 -13 -3 -13 -9 0 -5 21 -10 49
-10 26 0 76 -3 110 -6 57 -6 61 -5 61 13 0 16 -9 22 -37 27 -60 9 -135 7 -128
-4z"/>
<path d="M1984 3671 c3 -5 22 -9 42 -9 44 0 39 7 -10 13 -21 3 -35 1 -32 -4z"/>
<path d="M3098 3673 c6 -2 18 -2 25 0 6 3 1 5 -13 5 -14 0 -19 -2 -12 -5z"/>
<path d="M1622 3645 c0 -16 2 -22 5 -12 2 9 2 23 0 30 -3 6 -5 -1 -5 -18z"/>
<path d="M2862 3561 c-3 -58 -3 -58 22 -54 23 5 26 11 26 44 0 31 4 38 23 42
14 3 13 4 -6 2 -15 -1 -32 4 -38 12 -19 23 -24 15 -27 -46z"/>
<path d="M1620 3523 c0 -66 2 -72 23 -76 l22 -4 -22 -2 c-15 -1 -23 -7 -23
-20 0 -10 -7 -24 -15 -31 -8 -7 -15 -16 -15 -21 0 -4 -21 -28 -47 -53 -47 -45
-48 -46 -15 -35 17 6 32 17 32 24 0 14 37 45 52 45 5 0 8 -9 8 -20 0 -23 8
-24 47 -9 33 13 135 13 178 0 28 -9 26 -9 -20 -11 -27 -1 -59 -4 -70 -6 -11
-3 -52 -9 -92 -14 -65 -8 -159 -39 -190 -63 -23 -17 -43 1 -43 38 0 19 5 35
10 35 6 0 10 5 10 10 0 6 -7 10 -15 10 -29 0 -65 24 -65 42 0 11 -7 26 -15 34
-8 9 -15 33 -15 55 0 21 -4 39 -8 39 -10 0 -14 -158 -6 -234 l6 -58 68 6 c46
5 70 3 75 -4 13 -21 59 -31 107 -25 39 6 48 11 48 27 0 16 5 19 23 14 12 -3
45 -6 72 -7 28 -1 42 -3 32 -6 -23 -6 -17 -27 9 -32 27 -5 44 -21 44 -41 0
-15 12 -19 61 -25 33 -4 63 -4 66 -1 4 3 -4 6 -16 6 -18 0 -22 5 -19 24 2 14
-6 34 -17 46 l-20 22 35 -6 c19 -3 124 -13 232 -22 l198 -18 50 -84 c27 -46
50 -85 50 -87 0 -3 -15 -4 -32 -4 -18 1 -46 -5 -63 -12 l-30 -13 34 -4 c19 -2
37 1 40 6 11 17 55 18 72 1 9 -9 25 -30 35 -48 18 -30 34 -41 34 -22 0 5 -7
25 -16 46 -8 20 -14 47 -12 59 2 16 11 5 37 -44 l33 -65 -5 53 c-4 29 -15 66
-27 81 -26 38 -26 41 10 41 23 0 31 5 36 24 3 14 3 30 -1 36 -8 13 6 17 81 23
79 6 96 -3 66 -36 -12 -13 -22 -28 -22 -34 0 -6 -9 -22 -20 -35 -10 -14 -17
-28 -13 -31 3 -3 -2 -13 -10 -22 -9 -8 -14 -22 -11 -30 4 -8 2 -15 -3 -15 -14
0 -33 -47 -27 -65 4 -10 32 31 79 113 l73 127 49 0 50 0 -5 -46 c-4 -46 -4
-47 22 -42 24 5 26 9 26 54 0 40 -3 49 -17 50 -10 1 -25 2 -33 3 -8 0 -17 12
-21 26 -7 24 -7 24 -8 -5 l-2 -30 -18 22 c-19 22 -21 22 -132 12 -62 -6 -123
-9 -136 -6 -15 3 -23 -1 -23 -9 0 -17 -12 -18 -28 -2 -9 9 -12 8 -12 -5 0 -10
-8 -17 -18 -17 -26 0 -34 11 -21 27 9 10 5 13 -22 13 -19 0 -70 9 -114 20 -44
11 -89 20 -101 20 -11 0 -26 6 -32 12 -10 10 -14 10 -21 0 -6 -11 -23 -11 -85
-3 -43 6 -82 11 -87 11 -16 0 1 43 24 63 11 9 27 17 36 18 9 0 24 2 34 4 12 2
17 -3 17 -19 0 -28 29 -67 36 -48 7 15 34 16 34 1 0 -8 17 -9 55 -4 30 3 55 3
55 -2 0 -5 12 -9 28 -8 15 0 26 -5 25 -12 -6 -30 287 -55 347 -29 22 9 41 11
51 6 24 -13 92 8 85 26 -3 8 1 14 8 14 8 0 16 7 20 15 3 8 0 15 -6 15 -6 0 -9
2 -6 5 11 11 38 -8 38 -27 0 -14 5 -18 16 -14 9 3 20 6 25 6 5 0 9 37 9 83 0
86 -8 107 -42 107 -14 0 -18 9 -19 43 -1 36 -2 38 -9 17 -8 -24 -8 -24 -9 -2
-1 12 -5 22 -11 22 -5 0 -10 21 -10 46 0 45 0 45 -32 42 -41 -4 -68 -30 -68
-65 -1 -25 -2 -26 -11 -10 -6 10 -8 25 -5 33 4 12 -11 14 -89 14 l-95 0 0
-152 c0 -91 -4 -147 -9 -139 -5 7 -13 11 -19 7 -7 -4 -6 6 1 29 7 25 7 42 -1
60 -7 14 -12 33 -12 41 0 9 -7 22 -15 30 -14 14 -20 50 -18 101 1 15 -3 20
-13 16 -8 -3 -14 -12 -14 -19 0 -8 -7 -17 -15 -20 -12 -5 -15 -33 -17 -158 -1
-168 -4 -159 -17 58 -6 108 -12 150 -22 157 -11 7 -15 -9 -20 -84 -4 -75 -6
-81 -7 -32 l-2 60 -66 -3 c-51 -3 -64 -7 -60 -18 4 -10 -3 -14 -25 -14 -24 0
-30 4 -25 15 8 23 -22 18 -34 -5 -6 -11 -16 -20 -21 -20 -10 0 -8 21 7 73 3 9
1 17 -5 17 -6 0 -11 -7 -11 -15 0 -22 -29 -75 -41 -75 -5 0 -2 14 6 31 10 18
13 38 9 47 -6 13 -9 8 -13 -17 -3 -19 -12 -37 -20 -39 -10 -4 -12 0 -6 14 4
11 9 28 12 39 4 18 3 19 -7 2 -11 -17 -13 -16 -37 3 -20 15 -28 17 -34 8 -5
-8 -11 -9 -21 -1 -27 22 -68 21 -84 -1 l-16 -21 7 23 c6 19 3 22 -23 22 -16 0
-35 -7 -42 -15 -18 -22 -50 -19 -50 4 0 15 -9 20 -45 23 l-45 3 0 -72z m177
25 c-3 -8 -6 -5 -6 6 -1 11 2 17 5 13 3 -3 4 -12 1 -19z m1000 -30 c-3 -8 -6
-5 -6 6 -1 11 2 17 5 13 3 -3 4 -12 1 -19z m-1071 -1 c1 -1 5 -13 9 -27 7 -24
6 -24 -8 -5 -13 16 -17 17 -31 6 -14 -12 -16 -11 -16 7 0 11 -6 23 -12 26 -7
4 2 4 21 1 19 -3 35 -6 37 -8z m-52 -33 c9 -22 -3 -32 -14 -14 -12 19 -12 30
-1 30 5 0 12 -7 15 -16z m28 -16 c-7 -7 -12 -8 -12 -2 0 14 12 26 19 19 2 -3
-1 -11 -7 -17z m578 12 c0 -13 -30 -13 -50 0 -11 7 -7 10 18 10 17 0 32 -4 32
-10z m427 -22 c-3 -7 -5 -2 -5 12 0 14 2 19 5 13 2 -7 2 -19 0 -25z m-962 -9
c11 -16 1 -19 -13 -3 -7 8 -8 14 -3 14 5 0 13 -5 16 -11z m39 -20 c-7 -12 20
-22 43 -16 15 3 14 6 -7 15 -24 10 -24 11 -3 11 25 1 36 -11 28 -31 -6 -15
-55 -21 -55 -6 0 5 -4 6 -10 3 -5 -3 -10 0 -10 9 0 8 -3 23 -7 33 -6 16 -5 16
10 4 9 -7 14 -17 11 -22z m169 1 c3 -10 0 -21 -7 -24 -6 -2 8 -5 32 -5 40 -1
56 12 30 22 -9 4 -8 6 2 6 8 1 20 -11 27 -25 l12 -26 -49 4 c-47 5 -49 4 -52
-21 -4 -33 -24 -24 -21 9 2 14 3 37 3 53 1 31 15 36 23 7z m107 -10 c0 -5 -2
-10 -4 -10 -3 0 -8 5 -11 10 -3 6 -1 10 4 10 6 0 11 -4 11 -10z m-340 -10 c0
-5 -7 -7 -15 -4 -8 4 -15 8 -15 10 0 2 7 4 15 4 8 0 15 -4 15 -10z m35 0 c-3
-5 -10 -10 -16 -10 -5 0 -9 5 -9 10 0 6 7 10 16 10 8 0 12 -4 9 -10z m1105
-20 c0 -13 -5 -18 -15 -14 -8 4 -15 12 -15 20 0 8 7 14 15 14 8 0 15 -9 15
-20z m-983 -16 c-3 -3 -12 -4 -19 -1 -8 3 -5 6 6 6 11 1 17 -2 13 -5z m253
-19 c0 -8 -4 -15 -10 -15 -5 0 -10 7 -10 15 0 8 5 15 10 15 6 0 10 -7 10 -15z
m80 -11 c0 -17 -22 -14 -28 4 -2 7 3 12 12 12 9 0 16 -7 16 -16z m637 0 c-3
-3 -12 -4 -19 -1 -8 3 -5 6 6 6 11 1 17 -2 13 -5z m-520 -76 c-2 -13 -4 -5 -4
17 -1 22 1 32 4 23 2 -10 2 -28 0 -40z m-129 25 c2 -8 -6 -13 -22 -13 -17 0
-26 5 -26 16 0 19 41 16 48 -3z m-378 -3 c0 -5 -4 -10 -10 -10 -5 0 -10 5 -10
10 0 6 5 10 10 10 6 0 10 -4 10 -10z m987 -32 c-3 -7 -5 -2 -5 12 0 14 2 19 5
13 2 -7 2 -19 0 -25z m-977 -8 c0 -11 -2 -20 -5 -20 -2 0 -9 9 -15 20 -9 16
-8 20 5 20 8 0 15 -9 15 -20z m90 8 c0 -4 -4 -8 -9 -8 -6 0 -12 4 -15 8 -3 5
1 9 9 9 8 0 15 -4 15 -9z m-305 -33 c0 -16 -8 -21 -37 -23 -35 -3 -38 -1 -38
23 0 24 3 26 38 23 29 -2 37 -7 37 -23z"/>
<path d="M2175 3539 c-4 -6 -5 -12 -2 -15 2 -3 7 2 10 11 7 17 1 20 -8 4z"/>
<path d="M1468 3385 c-3 -93 1 -99 46 -64 24 19 27 27 24 68 -2 38 -8 49 -31
64 -15 9 -29 17 -32 17 -2 0 -5 -38 -7 -85z"/>
<path d="M3317 3129 c-4 -13 -7 -45 -7 -70 0 -47 0 -47 38 -51 20 -3 38 -4 40
-3 1 1 -9 15 -22 30 -17 19 -22 34 -17 44 5 9 5 25 0 36 -4 11 -8 16 -9 10 -1
-5 -5 -1 -9 9 -7 18 -8 18 -14 -5z"/>
<path d="M1575 3110 c-10 -17 5 -50 23 -50 14 -1 14 -3 -3 -12 -38 -22 -50
-64 -15 -53 11 4 20 2 20 -4 0 -7 26 -11 66 -11 60 0 65 2 59 19 -3 11 -1 22
5 26 14 9 9 65 -7 65 -7 0 -13 -9 -13 -20 0 -11 -4 -20 -10 -20 -5 0 -10 9
-10 20 0 38 -32 17 -35 -23 -1 -10 -8 -23 -15 -30 -10 -10 -12 -9 -7 5 3 9 1
18 -6 21 -9 3 -9 13 0 40 11 37 11 37 -17 37 -16 0 -32 -5 -35 -10z"/>
<path d="M1806 3091 c-3 -5 1 -11 9 -14 9 -4 12 -1 8 9 -6 16 -10 17 -17 5z"/>
<path d="M1406 3061 c-15 -6 -16 -9 -5 -13 12 -4 27 -4 92 1 9 0 17 6 17 11 0
12 -76 12 -104 1z"/>
<path d="M1953 3045 c-23 -27 -87 -35 -96 -12 -3 9 -8 9 -16 1 -6 -6 -9 -17
-6 -25 4 -11 31 -15 118 -16 100 -2 110 -1 93 12 -11 8 -23 15 -26 15 -4 0
-12 11 -18 25 -14 31 -21 31 -49 0z"/>
<path d="M1500 3030 c0 -5 5 -10 10 -10 6 0 10 5 10 10 0 6 -4 10 -10 10 -5 0
-10 -4 -10 -10z"/>
<path d="M1475 3000 c-19 -8 -19 -9 2 -9 16 -1 21 -6 17 -16 -4 -9 0 -15 7
-16 8 0 27 -3 42 -5 23 -4 28 -2 25 13 -3 13 -11 17 -31 15 -19 -2 -27 2 -27
13 0 17 -6 18 -35 5z"/>
<path d="M1740 2990 c0 -11 48 -25 56 -17 4 3 3 10 -1 16 -8 14 -55 14 -55 1z"/>
<path d="M2190 2990 c-53 -7 -53 -8 0 -15 81 -11 137 -4 125 16 -7 10 -39 10
-125 -1z"/>
<path d="M1595 2960 c3 -5 13 -10 21 -10 8 0 14 5 14 10 0 6 -9 10 -21 10 -11
0 -17 -4 -14 -10z"/>
<path d="M1394 2952 c3 -6 -2 -13 -11 -16 -12 -3 -10 -4 5 -3 24 2 32 19 11
26 -6 2 -9 -1 -5 -7z"/>
<path d="M2133 2926 c3 -8 -10 -16 -34 -23 -31 -8 -39 -8 -39 3 0 8 -5 14 -11
14 -6 0 -9 -7 -5 -15 5 -15 -8 -21 -69 -28 -27 -4 -27 -4 6 -6 20 0 72 8 115
19 60 15 80 16 87 7 5 -8 7 -6 5 7 -2 12 -15 23 -31 27 -21 6 -27 4 -24 -5z"/>
<path d="M1458 2923 c7 -3 16 -2 19 1 4 3 -2 6 -13 5 -11 0 -14 -3 -6 -6z"/>
<path d="M2219 2918 c-1 -7 0 -25 1 -40 1 -20 -3 -28 -14 -28 -23 0 -20 -27 4
-33 18 -5 20 0 20 54 0 32 -2 59 -5 59 -3 0 -5 -6 -6 -12z"/>
<path d="M2694 2640 c0 -151 2 -213 3 -137 2 75 2 199 0 275 -1 75 -3 13 -3
-138z"/>
<path d="M2048 2868 c-27 -7 -38 -16 -38 -29 0 -10 5 -19 10 -19 14 0 13 -27
-2 -32 -23 -8 2 -37 42 -49 59 -18 86 -1 93 60 8 68 -27 90 -105 69z m72 -68
c0 -5 -6 -10 -14 -10 -8 0 -18 5 -21 10 -3 6 3 10 14 10 12 0 21 -4 21 -10z"/>
<path d="M2558 2853 c6 -2 18 -2 25 0 6 3 1 5 -13 5 -14 0 -19 -2 -12 -5z"/>
<path d="M1382 2830 c0 -14 2 -19 5 -12 2 6 2 18 0 25 -3 6 -5 1 -5 -13z"/>
<path d="M1602 2688 c0 -30 -5 -54 -11 -56 -6 -2 -11 -17 -11 -32 0 -16 -5
-32 -10 -35 -8 -5 -7 -11 1 -21 13 -16 69 -19 69 -4 0 6 -4 10 -10 10 -18 0
-11 17 11 26 20 9 20 11 5 26 -20 21 -21 52 -1 68 14 12 14 15 -1 31 -9 10
-13 23 -9 28 3 7 -2 11 -14 11 -17 0 -20 -7 -19 -52z"/>
<path d="M2640 2560 c0 -29 3 -50 7 -47 7 8 6 88 -2 95 -3 3 -5 -19 -5 -48z"/>
<path d="M1523 2503 c-7 -2 -20 -20 -29 -38 -9 -19 -20 -33 -25 -32 -5 1 -11
-93 -14 -214 -6 -210 -5 -217 14 -222 18 -4 19 -9 11 -38 -13 -44 -13 -52 3
-46 12 4 13 8 16 47 1 13 6 17 16 14 23 -9 28 -47 12 -95 -8 -24 -13 -47 -10
-51 2 -5 24 -8 49 -8 41 0 45 2 40 20 -3 11 -9 29 -12 40 -3 13 -1 20 9 20 8
0 14 9 13 23 -1 24 3 27 37 26 21 0 21 -1 2 -9 -17 -7 -17 -9 -2 -9 22 -1 22
-16 -2 -40 -14 -14 -16 -21 -8 -25 9 -3 9 -5 0 -5 -7 -1 -13 -12 -13 -25 0
-20 6 -25 35 -28 38 -4 44 2 19 23 -14 12 -14 14 2 26 10 7 14 13 8 13 -5 0
-10 23 -10 50 -1 28 3 50 9 50 5 0 4 7 -3 15 -8 9 -8 15 -2 15 7 0 8 10 1 33
-16 56 -20 89 -11 101 17 21 24 71 23 164 -1 85 1 92 19 92 23 0 27 15 5 23
-8 4 -18 21 -23 39 -8 32 -9 33 -65 33 -31 0 -61 5 -68 13 -13 12 -25 14 -46
5z m-56 -400 c-2 -21 -4 -6 -4 32 0 39 2 55 4 38 2 -18 2 -50 0 -70z m133
-153 c0 -30 -13 -40 -25 -20 -8 13 4 50 16 50 5 0 9 -13 9 -30z"/>
<path d="M3316 2335 c-4 -99 -8 -363 -8 -586 -1 -392 -1 -406 -20 -418 -26
-16 -28 -12 -19 29 9 43 4 70 -14 70 -7 0 -15 10 -19 23 -8 31 -7 152 1 161 4
4 6 38 4 77 -2 58 0 69 13 69 13 0 16 11 16 55 l0 56 -52 -6 c-35 -4 -48 -3
-39 3 11 8 11 10 0 14 -9 3 -15 29 -17 80 -4 74 -5 76 -32 81 -15 3 -37 3 -49
0 -18 -5 -21 -13 -21 -59 0 -29 -5 -64 -11 -77 -10 -22 -16 -24 -60 -20 l-49
5 0 -41 c0 -45 17 -54 38 -21 12 20 46 27 56 11 3 -5 -1 -11 -9 -15 -8 -3 -15
-11 -15 -18 0 -8 -9 -20 -19 -27 -16 -12 -17 -18 -8 -38 12 -26 18 -28 35 -11
9 9 15 8 24 -4 7 -9 20 -18 28 -21 8 -3 -11 -6 -42 -6 -47 -1 -56 2 -52 14 4
8 1 15 -7 15 -7 0 -9 -3 -6 -7 4 -3 2 -12 -4 -20 -14 -16 -91 -17 -107 -1 -9
9 -12 4 -12 -24 0 -36 -1 -37 -27 -28 -51 16 -141 20 -170 8 -25 -10 -10 -13
122 -29 147 -19 225 -17 225 3 0 6 -7 8 -15 4 -11 -4 -15 1 -15 19 0 14 5 25
10 25 6 0 10 -6 10 -12 0 -9 4 -8 10 2 8 13 10 12 10 -2 0 -15 9 -18 49 -18
42 0 49 -3 46 -17 -2 -10 -4 -21 -4 -25 -1 -4 -17 -7 -37 -6 -40 1 -57 -15
-49 -48 4 -16 -1 -23 -18 -28 -33 -9 -49 -7 -42 4 6 9 -9 14 -67 23 -25 4 -28
1 -28 -26 0 -28 2 -29 31 -23 28 5 30 4 27 -22 -2 -22 -7 -26 -25 -24 -18 3
-23 -2 -23 -17 0 -16 6 -21 25 -21 20 0 25 -5 25 -26 0 -25 -2 -25 -42 -19
-77 12 -81 14 -74 47 3 16 3 41 0 54 -5 20 -12 24 -43 23 -35 -1 -36 -1 -6 -8
l30 -6 6 -120 c4 -66 7 -143 8 -172 l1 -52 30 10 30 11 0 91 c0 57 4 87 9 78
5 -7 14 -10 20 -7 7 4 11 -1 11 -13 0 -27 2 -28 113 -45 84 -14 104 -14 164
-2 37 8 70 11 73 6 3 -4 17 -6 32 -3 17 3 25 10 21 17 -4 6 5 3 20 -6 14 -10
41 -18 58 -18 l32 0 -7 333 c-3 182 -10 354 -15 382 -5 30 -4 73 2 112 8 48 8
78 -2 125 -7 35 -16 65 -21 68 -4 3 -6 21 -5 40 1 19 -2 38 -7 41 -6 4 -13 40
-17 80 -6 66 -8 56 -15 -106z m-288 -573 c-10 -2 -18 -8 -18 -13 0 -6 -5 -7
-12 -3 -8 5 -6 11 7 20 10 7 23 10 29 6 7 -4 5 -8 -6 -10z m-88 -109 c0 -14
-9 -18 -38 -19 -20 -1 -31 0 -24 3 6 3 12 11 12 19 0 8 10 14 25 14 17 0 25
-5 25 -17z m7 -219 c-9 -9 -28 6 -21 18 4 6 10 6 17 -1 6 -6 8 -13 4 -17z
m242 -60 c2 -2 -2 -10 -9 -19 -8 -9 -28 -15 -54 -14 -22 1 -33 3 -23 6 9 2 17
11 17 18 0 7 6 16 13 18 11 5 47 -1 56 -9z m-144 -44 c-3 -5 -13 -10 -21 -10
-8 0 -12 5 -9 10 3 6 13 10 21 10 8 0 12 -4 9 -10z"/>
<path d="M2090 2414 c-68 -22 -88 -24 -210 -20 -87 3 -124 1 -105 -4 17 -5 66
-10 110 -12 l80 -3 1 -220 c1 -259 1 -258 14 -250 15 9 12 -13 -5 -39 -19 -28
-16 -96 4 -96 10 0 12 12 9 50 -3 27 -2 47 2 45 4 -3 10 4 13 15 3 12 14 20
26 20 18 0 20 -4 14 -32 -3 -18 -10 -34 -15 -36 -13 -6 -9 -72 5 -73 23 -2 42
3 50 14 12 19 3 71 -13 79 -12 5 -11 7 4 7 15 1 16 4 6 16 -20 24 3 39 40 25
3 -1 8 -2 13 -1 4 0 7 -4 7 -9 0 -6 11 -3 25 6 21 14 25 24 25 66 0 27 -5 59
-12 71 -7 13 -11 50 -9 88 2 50 -1 68 -13 78 -17 14 -23 56 -6 46 6 -3 10 -2
10 3 0 5 7 9 15 9 8 0 15 -4 15 -9 0 -4 9 -8 20 -8 15 0 20 6 19 28 -1 17 -3
21 -6 9 -11 -41 -28 -7 -33 64 -3 41 -8 73 -12 72 -24 -8 -29 0 -8 12 36 20 7
16 -80 -11z m3 -191 c-7 -2 -19 -2 -25 0 -7 3 -2 5 12 5 14 0 19 -2 13 -5z"/>
<path d="M2223 2360 c0 -25 2 -35 4 -22 2 12 2 32 0 45 -2 12 -4 2 -4 -23z"/>
<path d="M1404 2314 c-4 -14 -2 -30 3 -35 5 -5 9 5 9 26 0 42 -3 44 -12 9z"/>
<path d="M2653 2295 c0 -27 2 -38 4 -22 2 15 2 37 0 50 -2 12 -4 0 -4 -28z"/>
<path d="M2455 2310 l-30 -8 33 -1 c28 -1 32 -4 32 -28 1 -24 2 -26 11 -10 10
17 4 58 -9 56 -4 -1 -20 -5 -37 -9z"/>
<path d="M2693 2265 c0 -27 2 -38 4 -22 2 15 2 37 0 50 -2 12 -4 0 -4 -28z"/>
<path d="M2710 2226 c0 -8 5 -18 10 -21 6 -3 10 1 10 9 0 8 -4 18 -10 21 -5 3
-10 -1 -10 -9z"/>
<path d="M2652 2210 c0 -14 2 -19 5 -12 2 6 2 18 0 25 -3 6 -5 1 -5 -13z"/>
<path d="M2690 2185 c0 -8 -4 -15 -8 -15 -5 0 -22 -11 -38 -25 -16 -14 -36
-23 -44 -19 -18 6 -20 7 -42 5 -10 0 -17 -6 -15 -13 1 -6 -13 -16 -30 -21 -18
-5 -33 -13 -33 -17 0 -4 -29 -8 -65 -8 -96 -1 -105 -5 -105 -56 l0 -43 92 -13
c91 -12 92 -12 110 10 20 25 16 57 -10 78 -15 11 -15 14 -2 22 20 13 50 12 50
-1 0 -5 -6 -7 -12 -3 -7 4 -5 -2 5 -13 9 -11 17 -28 17 -38 0 -10 -8 -27 -17
-38 -18 -19 -17 -20 12 -14 68 13 105 31 105 53 0 12 7 24 15 28 13 5 15 -15
15 -139 0 -128 2 -144 18 -148 9 -3 -4 -5 -30 -6 -26 0 -50 -5 -53 -11 -3 -5
-1 -10 4 -10 6 0 10 -3 10 -7 -4 -23 4 -29 37 -30 20 -1 40 -7 45 -15 7 -10 9
-10 9 0 0 9 4 9 18 1 12 -8 27 -8 52 0 l35 10 -42 -5 -42 -6 6 36 c4 26 2 36
-7 36 -10 0 -12 29 -8 133 5 126 5 129 -8 72 -7 -33 -14 -76 -15 -95 -1 -28
-3 -25 -9 20 -5 30 -8 81 -9 113 -1 60 10 72 35 40 23 -31 18 73 -7 124 -21
43 -39 56 -39 28z m0 -115 c0 -5 -7 -10 -16 -10 -8 0 -12 5 -9 10 3 6 10 10
16 10 5 0 9 -4 9 -10z m-283 -82 c-2 -13 -4 -5 -4 17 -1 22 1 32 4 23 2 -10 2
-28 0 -40z"/>
<path d="M2223 2000 c0 -36 2 -50 4 -32 2 17 2 47 0 65 -2 17 -4 3 -4 -33z"/>
<path d="M1382 2020 c0 -14 2 -19 5 -12 2 6 2 18 0 25 -3 6 -5 1 -5 -13z"/>
<path d="M2649 1905 c-2 -84 -2 -86 -11 -100 -3 -5 0 -16 8 -23 12 -11 14 3
14 93 0 58 -2 105 -5 105 -3 0 -6 -34 -6 -75z"/>
<path d="M1722 1918 c0 -18 2 -37 6 -42 8 -13 20 43 14 62 -8 23 -19 12 -20
-20z"/>
<path d="M2581 1896 c-1 -38 2 -57 9 -50 5 5 6 29 1 59 l-9 50 -1 -59z"/>
<path d="M1853 1903 c1 -16 6 -27 10 -25 4 1 7 4 7 7 0 3 0 14 0 25 0 11 -4
20 -9 20 -6 0 -9 -12 -8 -27z"/>
<path d="M1445 1867 c-4 -10 -5 -21 -1 -24 10 -10 18 4 13 24 -4 17 -4 17 -12
0z"/>
<path d="M1928 1873 c6 -2 18 -2 25 0 6 3 1 5 -13 5 -14 0 -19 -2 -12 -5z"/>
<path d="M1732 1830 c0 -14 2 -19 5 -12 2 6 2 18 0 25 -3 6 -5 1 -5 -13z"/>
<path d="M1383 1813 c5 -7 -6 -16 -28 -23 -38 -13 -47 -30 -15 -30 14 0 20 -7
20 -24 0 -22 -2 -23 -36 -16 -26 6 -37 5 -41 -6 -3 -7 -20 -16 -39 -20 -19 -3
-37 -10 -39 -15 -3 -4 16 -2 42 6 26 8 59 14 73 14 23 -2 23 -2 -5 -9 -64 -15
-76 -22 -70 -40 4 -14 -3 -21 -32 -31 -21 -7 -45 -12 -55 -11 -9 2 -19 -2 -23
-8 -4 -6 4 -10 20 -10 17 0 24 -4 19 -12 -5 -7 -2 -9 7 -6 8 3 25 9 39 13 21
7 23 6 13 -7 -7 -8 -10 -18 -7 -21 4 -3 -5 -12 -20 -18 -30 -14 -34 -29 -8
-30 10 0 12 -3 5 -6 -7 -2 -13 -9 -13 -15 0 -6 8 -4 18 4 41 37 84 29 47 -9
-8 -8 -12 -19 -9 -25 4 -6 -2 -8 -16 -3 -19 6 -21 4 -15 -14 3 -11 10 -49 14
-83 5 -35 9 -55 10 -44 1 14 6 17 24 12 12 -3 28 -6 36 -6 7 0 11 -6 8 -14 -7
-17 21 -26 78 -26 33 0 42 5 51 25 11 23 11 24 -45 31 -78 9 -121 30 -117 57
1 12 8 23 14 25 5 1 57 -4 113 -12 57 -9 103 -14 104 -13 0 1 18 27 38 57 42
63 44 70 20 71 -10 1 -4 4 12 8 17 3 30 11 31 16 3 40 17 47 73 41 43 -4 48
-3 22 4 -19 4 -38 15 -43 24 -5 9 -15 16 -22 16 -8 0 -16 12 -19 26 -4 25 -4
25 52 19 31 -4 99 -13 151 -20 129 -19 219 -26 197 -17 -10 4 -18 12 -17 17 1
15 -46 18 -71 4 -19 -10 -25 -9 -35 6 -12 16 -91 32 -209 40 -28 2 -63 8 -78
14 -15 6 -27 7 -27 1 0 -4 8 -11 18 -13 16 -4 16 -5 0 -6 -14 -1 -18 -10 -18
-41 0 -48 -24 -55 -42 -12 -16 36 -13 33 -50 43 -33 9 -33 9 5 4 31 -3 36 -1
28 9 -6 7 -7 16 -3 21 4 4 -4 5 -18 1 -14 -4 -36 -7 -50 -6 -14 1 -33 3 -42 3
-26 2 -22 27 5 28 12 1 45 1 72 -1 60 -2 51 11 -20 29 -27 7 -58 20 -69 29
-11 9 -16 12 -13 5z m55 -110 c-10 -2 -26 -2 -35 0 -10 3 -2 5 17 5 19 0 27
-2 18 -5z m-18 -160 c0 -10 -5 -25 -10 -33 -7 -11 -10 -7 -10 18 0 17 5 32 10
32 6 0 10 -8 10 -17z m29 -30 c0 -36 -3 -43 -9 -28 -12 28 -12 75 0 75 6 0 10
-21 9 -47z m-59 -73 c12 -8 11 -10 -7 -10 -13 0 -23 5 -23 10 0 13 11 13 30 0z
m65 -10 c7 -12 -2 -12 -30 0 -19 8 -19 9 2 9 12 1 25 -3 28 -9z m-198 -72 c-3
-8 -6 -5 -6 6 -1 11 2 17 5 13 3 -3 4 -12 1 -19z"/>
<path d="M2150 1778 c0 -32 25 -43 76 -33 33 6 34 5 35 -27 2 -32 2 -31 8 7 7
48 0 55 -52 49 -30 -3 -44 1 -53 14 -12 15 -13 14 -14 -10z"/>
<path d="M2581 1768 c-1 -10 -6 -18 -13 -18 -6 0 -3 -10 8 -21 l19 -22 -42 7
c-41 6 -43 5 -41 -18 3 -32 41 -51 68 -34 11 7 20 18 20 25 0 7 5 13 11 13 8
0 7 6 -2 17 -8 9 -13 18 -12 19 1 2 -2 14 -7 26 -7 18 -9 19 -9 6z"/>
<path d="M1580 1750 c0 -5 7 -10 16 -10 8 0 12 5 9 10 -3 6 -10 10 -16 10 -5
0 -9 -4 -9 -10z"/>
<path d="M1468 1733 c7 -3 16 -2 19 1 4 3 -2 6 -13 5 -11 0 -14 -3 -6 -6z"/>
<path d="M2915 1710 c3 -5 8 -10 11 -10 2 0 4 5 4 10 0 6 -5 10 -11 10 -5 0
-7 -4 -4 -10z"/>
<path d="M1540 1695 c0 -9 6 -12 15 -9 8 4 12 10 9 15 -8 14 -24 10 -24 -6z"/>
<path d="M954 1690 c-6 -6 -34 -13 -62 -17 -43 -5 -52 -9 -52 -25 0 -13 6 -18
18 -16 9 1 23 -1 30 -5 8 -6 12 -2 12 11 0 11 7 23 16 26 24 9 27 8 21 -14 -4
-17 -1 -16 29 8 19 15 34 30 34 35 0 11 -34 9 -46 -3z"/>
<path d="M1134 1654 c-10 -8 -13 -12 -6 -9 8 4 26 11 40 15 22 7 23 8 6 9 -11
1 -29 -6 -40 -15z"/>
<path d="M2044 1648 c-11 -17 9 -28 47 -28 28 0 39 -4 39 -15 0 -8 5 -15 11
-15 6 0 9 12 7 28 -3 24 -8 28 -51 33 -27 3 -50 1 -53 -3z"/>
<path d="M2262 1620 c0 -19 2 -27 5 -17 2 9 2 25 0 35 -3 9 -5 1 -5 -18z"/>
<path d="M570 1606 c0 -13 6 -26 14 -29 19 -8 24 -1 18 28 -6 32 -32 33 -32 1z"/>
<path d="M810 1620 c0 -5 5 -10 11 -10 5 0 7 5 4 10 -3 6 -8 10 -11 10 -2 0
-4 -4 -4 -10z"/>
<path d="M2607 1618 c-2 -7 0 -23 4 -35 5 -15 4 -25 -4 -30 -7 -5 6 -10 33
-14 169 -23 160 -23 160 -2 0 15 -12 22 -60 32 -33 7 -69 11 -80 8 -11 -3 -20
0 -20 5 0 7 25 9 73 5 80 -7 68 4 -33 29 -69 17 -67 17 -73 2z"/>
<path d="M939 1613 c-1 -5 -1 -11 0 -15 0 -4 -6 -5 -14 -2 -9 4 -21 1 -29 -5
-7 -6 -16 -8 -19 -4 -4 3 -7 1 -7 -5 0 -14 16 -16 25 -2 3 5 11 7 18 4 7 -2
37 4 67 15 l55 20 -47 0 c-27 1 -49 -2 -49 -6z"/>
<path d="M2300 1610 c0 -5 5 -10 11 -10 5 0 7 5 4 10 -3 6 -8 10 -11 10 -2 0
-4 -4 -4 -10z"/>
<path d="M2535 1610 c-3 -5 -1 -10 5 -10 8 0 10 -9 6 -25 -5 -18 -2 -25 9 -25
11 0 15 10 15 35 0 34 -20 49 -35 25z"/>
<path d="M730 1591 c0 -11 -3 -27 -6 -35 -4 -12 -2 -15 9 -10 8 3 17 2 20 -3
3 -5 -5 -10 -19 -11 -13 -1 -24 3 -24 8 0 6 -5 10 -11 10 -5 0 -8 -4 -5 -8 3
-5 -8 -9 -25 -10 -17 0 -37 -6 -45 -13 -17 -14 -19 -92 -2 -122 23 -41 19 -44
-59 -41 -54 3 -73 0 -72 -9 4 -35 -2 -78 -11 -72 -6 3 -10 35 -10 71 0 35 -4
64 -9 64 -5 0 -7 -19 -5 -42 2 -24 1 -35 -2 -25 -7 23 -25 17 -35 -12 -7 -18
-5 -22 9 -20 30 3 35 -1 22 -16 -10 -12 -8 -21 13 -48 l25 -33 -42 -3 c-37 -1
-44 2 -54 24 -7 14 -12 50 -12 80 0 30 -4 56 -9 59 -4 3 -7 -19 -6 -49 1 -30
-2 -55 -7 -55 -17 0 -7 -32 19 -65 18 -23 31 -31 38 -25 7 6 28 11 48 12 20 2
37 6 37 11 0 11 28 8 32 -4 2 -5 11 -7 20 -4 14 6 15 10 5 26 -6 10 -17 19
-24 19 -9 0 -12 15 -11 48 1 41 2 43 5 11 3 -31 7 -36 24 -32 14 4 19 12 16
24 -3 11 -1 22 4 25 5 3 9 -4 9 -15 0 -12 3 -20 8 -20 21 4 30 -4 36 -31 4
-21 11 -30 26 -30 11 0 20 4 20 10 0 5 23 12 50 16 28 4 50 10 50 14 0 5 13
11 29 15 28 6 29 8 29 66 -1 40 -4 59 -12 56 -64 -24 -86 -30 -92 -25 -3 4 -7
36 -7 72 -2 58 -4 66 -21 66 -11 0 -17 3 -13 6 3 4 17 4 30 0 22 -5 24 -11 26
-63 1 -77 11 -82 11 -5 0 33 5 64 10 67 6 3 7 17 4 31 -4 14 -2 24 5 24 6 0
11 7 11 16 0 8 -4 12 -10 9 -5 -3 -10 -1 -10 4 0 6 -7 11 -15 11 -8 0 -15 -9
-15 -19z m-53 -107 c-3 -3 -12 -4 -19 -1 -8 3 -5 6 6 6 11 1 17 -2 13 -5z
m-130 -181 c-3 -10 -5 -4 -5 12 0 17 2 24 5 18 2 -7 2 -21 0 -30z m50 5 c-3
-8 -6 -5 -6 6 -1 11 2 17 5 13 3 -3 4 -12 1 -19z m-90 -50 c-2 -13 -4 -3 -4
22 0 25 2 35 4 23 2 -13 2 -33 0 -45z"/>
<path d="M2336 1599 c3 -6 0 -15 -7 -20 -10 -6 -2 -9 24 -9 20 0 37 5 37 11 0
5 -4 8 -9 4 -5 -3 -16 2 -24 10 -18 18 -31 20 -21 4z"/>
<path d="M1055 1567 c-50 -28 -59 -52 -15 -42 50 11 36 -38 -16 -55 -38 -13
-47 -35 -11 -28 22 4 23 3 19 -55 l-5 -59 34 7 c42 9 59 23 41 34 -13 8 14 25
54 34 17 3 20 0 16 -24 -2 -16 -10 -29 -17 -29 -7 0 -1 -13 14 -29 25 -28 26
-28 34 -8 8 22 -12 134 -22 119 -3 -5 -16 -12 -28 -16 -35 -11 -40 14 -8 41
28 24 28 25 12 59 -10 21 -22 32 -30 28 -8 -3 -20 2 -27 11 -8 10 -9 15 -1 15
6 0 11 5 11 10 0 14 -10 12 -55 -13z"/>
<path d="M2850 1580 c0 -5 7 -10 15 -10 8 0 15 5 15 10 0 6 -7 10 -15 10 -8 0
-15 -4 -15 -10z"/>
<path d="M827 1566 c-4 -10 0 -12 14 -9 10 3 16 9 13 14 -8 13 -21 11 -27 -5z"/>
<path d="M1150 1571 c0 -6 4 -13 10 -16 6 -3 7 1 4 9 -7 18 -14 21 -14 7z"/>
<path d="M2181 1564 c0 -11 3 -14 6 -6 3 7 2 16 -1 19 -3 4 -6 -2 -5 -13z"/>
<path d="M2240 1536 c0 -25 12 -46 26 -46 9 0 14 11 14 31 0 18 -4 28 -10 24
-6 -4 -7 -11 -4 -17 4 -7 2 -8 -5 -4 -6 4 -9 12 -6 17 4 5 1 9 -4 9 -6 0 -11
-6 -11 -14z"/>
<path d="M2215 1530 c-3 -5 -1 -10 4 -10 6 0 11 5 11 10 0 6 -2 10 -4 10 -3 0
-8 -4 -11 -10z"/>
<path d="M2333 1518 c10 -15 9 -21 -3 -28 -17 -11 -5 -13 28 -4 22 6 32 44 11
44 -5 0 -7 -4 -4 -10 3 -5 1 -10 -4 -10 -6 0 -11 6 -11 13 0 8 -6 14 -14 14
-11 0 -12 -4 -3 -19z"/>
<path d="M2130 1520 c-9 -6 -10 -10 -3 -10 6 0 15 5 18 10 8 12 4 12 -15 0z"/>
<path d="M2810 1519 c0 -5 5 -7 10 -4 6 3 10 8 10 11 0 2 -4 4 -10 4 -5 0 -10
-5 -10 -11z"/>
<path d="M2290 1511 c0 -6 4 -13 10 -16 6 -3 7 1 4 9 -7 18 -14 21 -14 7z"/>
<path d="M2505 1510 c-16 -7 -17 -9 -3 -9 9 -1 20 -6 24 -13 4 -7 3 -8 -4 -4
-8 5 -12 -3 -12 -25 l0 -32 -74 6 c-40 4 -82 9 -92 13 -15 4 -16 3 -4 -4 8 -5
50 -15 94 -21 76 -11 134 -30 94 -31 -10 0 -18 -4 -18 -10 0 -5 5 -10 10 -10
6 0 25 -14 42 -31 40 -37 44 -85 11 -111 -14 -12 -19 -25 -16 -38 5 -18 0 -20
-35 -20 -55 0 -72 8 -72 34 0 11 -9 35 -20 51 -21 32 -28 17 -11 -27 13 -36
-3 -68 -37 -68 -15 0 -33 5 -39 11 -7 7 -12 4 -16 -11 -7 -25 -5 -26 103 -38
61 -6 79 -11 63 -17 -17 -5 -23 -15 -23 -36 0 -16 4 -29 9 -29 27 0 41 15 41
41 l0 29 83 -6 c95 -8 132 4 122 37 -4 10 -2 19 3 19 6 0 8 9 5 20 -3 11 -10
20 -15 20 -6 0 -8 -9 -5 -21 5 -17 1 -20 -21 -17 -27 3 -27 4 -24 68 2 36 6
67 9 70 3 3 3 -23 1 -58 -1 -34 0 -62 5 -62 4 0 8 5 8 10 1 6 2 15 3 20 0 6 6
14 12 18 17 11 23 50 10 61 -7 6 -11 24 -8 41 7 46 -5 80 -28 80 -14 0 -20 7
-20 21 0 16 5 20 20 16 26 -7 28 31 3 39 -10 4 -32 12 -50 20 -34 15 -97 17
-128 4z m105 -289 c0 -18 -12 -41 -22 -41 -6 0 -5 6 2 15 6 8 9 19 5 25 -3 5
-1 10 4 10 6 0 11 -4 11 -9z m35 -41 c3 -5 -3 -10 -15 -10 -12 0 -18 5 -15 10
3 6 10 10 15 10 5 0 12 -4 15 -10z m-258 -36 c-3 -3 -12 -4 -19 -1 -8 3 -5 6
6 6 11 1 17 -2 13 -5z m86 -11 c-7 -2 -21 -2 -30 0 -10 3 -4 5 12 5 17 0 24
-2 18 -5z"/>
<path d="M816 1484 c-7 -18 0 -34 15 -34 12 0 12 37 0 44 -5 3 -12 -1 -15 -10z"/>
<path d="M2450 1490 c-23 -7 -23 -8 -3 -9 12 -1 25 4 28 9 3 6 5 10 3 9 -2 -1
-14 -5 -28 -9z"/>
<path d="M2398 1473 c7 -3 16 -2 19 1 4 3 -2 6 -13 5 -11 0 -14 -3 -6 -6z"/>
<path d="M2726 1464 c-8 -21 -3 -26 18 -18 20 8 21 34 2 34 -8 0 -17 -7 -20
-16z"/>
<path d="M1705 1455 c-3 -8 -7 -21 -9 -29 -3 -8 4 -22 15 -32 29 -26 23 -37
-10 -18 -36 21 -45 16 -89 -56 -27 -43 -28 -50 -14 -54 21 -6 214 -32 298 -41
l61 -6 46 75 c25 41 47 83 49 93 2 10 7 21 12 25 14 10 -55 25 -189 43 -148
19 -164 19 -170 0z"/>
<path d="M2810 1430 c0 -13 5 -20 13 -17 6 2 12 10 12 17 0 7 -6 15 -12 18 -8
2 -13 -5 -13 -18z"/>
<path d="M890 1371 c0 -33 5 -63 10 -66 6 -4 10 18 10 59 0 37 -4 66 -10 66
-6 0 -10 -26 -10 -59z"/>
<path d="M2343 1413 c-19 -7 -16 -43 4 -43 9 0 25 -8 36 -17 15 -13 21 -15 24
-5 3 6 12 12 20 12 13 0 13 3 3 15 -11 13 -8 15 19 15 19 0 30 4 26 10 -10 17
-70 5 -73 -15 -3 -15 -6 -14 -15 5 -13 25 -25 31 -44 23z"/>
<path d="M400 1390 c0 -5 5 -10 11 -10 5 0 7 5 4 10 -3 6 -8 10 -11 10 -2 0
-4 -4 -4 -10z"/>
<path d="M430 1380 c0 -5 5 -10 10 -10 6 0 10 5 10 10 0 6 -4 10 -10 10 -5 0
-10 -4 -10 -10z"/>
<path d="M991 1305 c-24 -8 -56 -26 -72 -41 -16 -15 -29 -23 -29 -17 0 19 -39
2 -46 -20 -4 -14 -1 -25 12 -34 23 -17 36 -13 49 15 12 28 35 29 28 2 -3 -11
-9 -17 -14 -14 -5 3 -9 0 -9 -6 0 -15 92 -9 97 6 2 7 -5 10 -20 7 -14 -3 -28
0 -32 7 -9 14 22 80 38 80 8 0 8 -3 2 -8 -24 -17 -13 -38 17 -33 4 0 10 -8 13
-19 7 -22 20 -26 30 -10 3 6 0 10 -8 10 -9 0 -17 12 -19 29 -2 17 -1 28 3 25
4 -2 11 1 14 7 13 21 -10 27 -54 14z"/>
<path d="M1226 1275 c-4 -12 2 -15 27 -14 18 1 24 3 15 6 -10 2 -18 9 -18 14
0 15 -17 10 -24 -6z"/>
<path d="M3470 1264 c-36 -14 -72 -29 -80 -33 -9 -5 -30 -12 -49 -16 -18 -4
-34 -12 -37 -19 -2 -6 -16 -13 -30 -14 -13 -1 -38 -9 -54 -17 -16 -8 -36 -15
-44 -15 -8 0 -21 -7 -30 -15 -8 -9 -19 -14 -23 -13 -4 1 -24 -4 -43 -11 -19
-8 -41 -13 -47 -12 -12 2 -22 -5 -58 -37 -8 -7 -17 -13 -20 -12 -30 2 -46 -2
-58 -15 -8 -8 -17 -11 -20 -8 -3 3 -25 -4 -49 -15 -24 -12 -56 -24 -71 -28
-16 -3 -31 -13 -34 -20 -3 -8 -17 -14 -32 -14 -15 0 -36 -7 -47 -15 -10 -8
-27 -15 -37 -15 -10 0 -37 -10 -60 -21 -23 -12 -44 -22 -47 -22 -8 1 -33 -8
-70 -25 -34 -16 -35 -18 -36 -74 l-1 -58 23 15 c13 8 34 15 47 15 14 0 36 9
49 20 14 10 28 17 31 14 3 -3 22 3 44 14 21 11 52 23 70 26 17 4 34 14 37 23
4 8 12 13 20 10 8 -3 31 3 51 13 20 10 50 22 67 25 16 4 32 13 35 21 3 8 10
14 17 13 27 -3 46 2 61 17 8 9 22 14 29 11 7 -3 27 3 43 13 16 10 44 21 62 25
18 4 35 13 38 22 3 8 12 12 19 9 17 -7 64 13 64 27 0 5 6 7 14 4 7 -3 28 3 45
14 17 10 39 19 49 19 10 0 26 6 37 14 11 7 35 17 53 21 18 4 36 13 39 20 2 8
11 11 19 8 8 -3 26 3 42 13 15 10 34 17 43 16 12 -2 15 8 15 53 -1 30 -5 55
-11 55 -5 0 -39 -12 -75 -26z m-840 -358 c0 -3 -4 -8 -10 -11 -5 -3 -10 -1
-10 4 0 6 5 11 10 11 6 0 10 -2 10 -4z"/>
<path d="M1175 1250 c3 -5 8 -10 11 -10 2 0 4 5 4 10 0 6 -5 10 -11 10 -5 0
-7 -4 -4 -10z"/>
<path d="M1308 1253 c7 -3 16 -2 19 1 4 3 -2 6 -13 5 -11 0 -14 -3 -6 -6z"/>
<path d="M3288 1253 c7 -3 16 -2 19 1 4 3 -2 6 -13 5 -11 0 -14 -3 -6 -6z"/>
<path d="M1378 1243 c7 -3 16 -2 19 1 4 3 -2 6 -13 5 -11 0 -14 -3 -6 -6z"/>
<path d="M3333 1243 c9 -2 23 -2 30 0 6 3 -1 5 -18 5 -16 0 -22 -2 -12 -5z"/>
<path d="M1127 1212 c-29 -32 -13 -47 17 -16 17 17 21 34 8 34 -5 0 -16 -8
-25 -18z"/>
<path d="M2372 1205 c0 -16 2 -22 5 -12 2 9 2 23 0 30 -3 6 -5 -1 -5 -18z"/>
<path d="M2391 1213 c-1 -12 4 -25 9 -28 12 -7 12 2 0 30 -8 19 -9 19 -9 -2z"/>
<path d="M1283 1213 c9 -2 23 -2 30 0 6 3 -1 5 -18 5 -16 0 -22 -2 -12 -5z"/>
<path d="M630 1202 c0 -12 19 -26 26 -19 2 2 -2 10 -11 17 -9 8 -15 8 -15 2z"/>
<path d="M1040 1190 c0 -15 21 -23 32 -12 6 6 2 11 -11 15 -12 3 -21 1 -21 -3z"/>
<path d="M1170 1189 c0 -5 9 -9 20 -9 11 0 20 2 20 4 0 2 -9 6 -20 9 -11 3
-20 1 -20 -4z"/>
<path d="M788 1163 c12 -2 30 -2 40 0 9 3 -1 5 -23 4 -22 0 -30 -2 -17 -4z"/>
<path d="M856 1155 c-3 -8 0 -15 6 -15 6 0 8 -3 5 -6 -4 -4 -13 -2 -20 4 -10
9 -14 8 -14 -3 0 -16 20 -18 51 -6 19 7 19 8 0 16 -14 7 -5 11 41 15 l60 7
-61 1 c-47 2 -63 -2 -68 -13z"/>
<path d="M1088 1158 c5 -5 16 -8 23 -6 8 3 3 7 -10 11 -17 4 -21 3 -13 -5z"/>
<path d="M628 1153 c7 -3 16 -2 19 1 4 3 -2 6 -13 5 -11 0 -14 -3 -6 -6z"/>
<path d="M1048 1153 c7 -3 16 -2 19 1 4 3 -2 6 -13 5 -11 0 -14 -3 -6 -6z"/>
<path d="M1460 1151 c0 -6 5 -13 11 -17 8 -4 10 -30 7 -75 l-5 -69 33 0 c41 0
32 1 96 -16 29 -7 65 -14 81 -14 22 0 27 4 27 25 0 23 4 25 43 26 l42 1 -44 9
c-54 11 -60 15 -35 34 18 14 18 14 -11 16 -16 2 -37 3 -45 5 -8 1 -20 2 -26 3
-6 1 -19 16 -28 34 -13 27 -16 29 -16 10 0 -13 4 -23 10 -23 5 0 9 -11 8 -25
-3 -28 -18 -34 -19 -7 0 10 -3 12 -6 4 -3 -7 0 -27 6 -44 12 -34 6 -52 -9 -28
-6 8 -10 11 -10 6 0 -5 -6 -3 -14 4 -8 6 -12 18 -9 26 3 8 0 14 -7 14 -9 0 -9
4 -2 13 5 6 13 26 16 43 7 30 6 32 -38 43 -54 13 -56 13 -56 2z m63 -47 c-4
-11 -9 -12 -19 -3 -20 16 -17 28 5 22 12 -3 17 -11 14 -19z"/>
<path d="M2918 1153 c7 -3 16 -2 19 1 4 3 -2 6 -13 5 -11 0 -14 -3 -6 -6z"/>
<path d="M2978 1143 c7 -3 16 -2 19 1 4 3 -2 6 -13 5 -11 0 -14 -3 -6 -6z"/>
<path d="M3048 1133 c7 -3 16 -2 19 1 4 3 -2 6 -13 5 -11 0 -14 -3 -6 -6z"/>
<path d="M241 1114 c0 -11 3 -14 6 -6 3 7 2 16 -1 19 -3 4 -6 -2 -5 -13z"/>
<path d="M1050 1116 c0 -2 7 -7 16 -10 8 -3 12 -2 9 4 -6 10 -25 14 -25 6z"/>
<path d="M1638 1113 c6 -2 18 -2 25 0 6 3 1 5 -13 5 -14 0 -19 -2 -12 -5z"/>
<path d="M1690 1103 c0 -16 42 -34 78 -32 15 0 41 -4 57 -9 l30 -10 -30 -2
c-26 -1 -27 -3 -10 -10 24 -10 81 -13 72 -3 -4 3 -3 11 3 17 19 23 -9 36 -103
50 -82 11 -97 11 -97 -1z"/>
<path d="M2371 1094 c0 -11 3 -14 6 -6 3 7 2 16 -1 19 -3 4 -6 -2 -5 -13z"/>
<path d="M1927 1069 c4 -13 8 -18 11 -10 2 7 -1 18 -6 23 -8 8 -9 4 -5 -13z"/>
<path d="M2390 1070 c0 -11 -5 -20 -12 -20 -9 0 -9 -3 -1 -11 6 -6 21 -9 34
-7 18 2 25 10 27 31 3 23 0 27 -22 27 -19 0 -26 -5 -26 -20z"/>
<path d="M2330 1065 c0 -8 8 -15 18 -15 13 0 14 2 3 9 -11 7 -11 9 0 14 10 4
9 6 -3 6 -10 1 -18 -6 -18 -14z"/>
<path d="M2008 1063 c7 -3 16 -2 19 1 4 3 -2 6 -13 5 -11 0 -14 -3 -6 -6z"/>
<path d="M2070 1030 c0 -5 -28 -6 -62 -4 -35 2 -55 1 -46 -3 12 -6 15 -12 8
-23 -28 -44 4 -53 44 -13 24 24 30 26 57 16 25 -10 31 -9 39 7 8 15 5 19 -15
22 -14 3 -25 2 -25 -2z"/>
<path d="M2370 1009 c0 -6 -7 -9 -15 -5 -9 3 -21 -4 -31 -20 -10 -14 -23 -23
-30 -20 -8 3 -14 -1 -14 -10 0 -8 6 -17 14 -20 8 -3 13 -11 10 -19 -4 -9 2
-11 21 -8 22 5 23 7 10 17 -14 10 -13 14 9 35 15 14 26 19 26 13 0 -14 27 -5
33 12 3 7 -4 18 -14 24 -14 9 -19 9 -19 1z"/>
<path d="M1924 972 c-6 -27 -10 -30 -39 -27 -18 1 -42 6 -54 10 -12 3 -21 2
-21 -4 0 -5 24 -13 54 -16 l55 -7 17 -79 c9 -43 21 -79 25 -79 12 0 10 19 -6
65 -10 27 -13 58 -9 96 4 37 2 59 -5 63 -7 5 -13 -4 -17 -22z"/>
<path d="M336 948 c-3 -13 -5 -39 -5 -58 1 -27 3 -22 9 20 9 58 7 77 -4 38z"/>
<path d="M2143 940 c-1 -16 3 -19 23 -14 16 4 26 1 30 -9 5 -13 11 -14 32 -6
15 6 29 10 32 9 2 -1 6 3 8 9 5 15 -41 31 -87 31 -30 0 -37 -4 -38 -20z"/>
<path d="M2378 903 c7 -3 16 -2 19 1 4 3 -2 6 -13 5 -11 0 -14 -3 -6 -6z"/>
<path d="M745 845 c-3 -30 -11 -55 -16 -55 -5 0 -9 -22 -9 -50 0 -27 -4 -50
-10 -50 -5 0 -10 -13 -10 -30 0 -16 -4 -30 -10 -30 -6 0 -10 -27 -10 -60 0
-33 -4 -60 -10 -60 -5 0 -10 -7 -10 -15 0 -8 -4 -15 -10 -15 -5 0 -10 -9 -10
-20 0 -11 5 -20 10 -20 6 0 10 -9 10 -20 0 -11 -4 -20 -10 -20 -6 0 -10 -34
-10 -83 0 -70 -3 -88 -20 -107 -17 -20 -20 -37 -20 -117 l0 -93 230 0 230 0 0
65 c0 36 -4 65 -9 65 -5 0 -12 47 -16 105 -5 70 -12 110 -21 120 -8 8 -18 44
-23 80 l-7 65 65 1 66 1 -105 22 -105 21 3 38 c3 29 -1 43 -17 56 -12 10 -21
30 -21 44 0 17 -7 28 -20 32 -15 5 -20 16 -21 43 l-2 37 -6 -35 c-7 -34 -8
-33 -15 22 -5 32 -6 64 -2 73 9 24 -4 45 -29 45 -20 0 -24 -6 -30 -55z"/>
<path d="M2443 893 c9 -2 23 -2 30 0 6 3 -1 5 -18 5 -16 0 -22 -2 -12 -5z"/>
<path d="M2228 883 c7 -3 16 -2 19 1 4 3 -2 6 -13 5 -11 0 -14 -3 -6 -6z"/>
<path d="M1070 750 c0 -15 45 -30 88 -30 l37 1 -35 19 c-38 21 -90 26 -90 10z"/>
<path d="M1957 753 c-4 -3 -7 -25 -8 -47 -1 -45 -20 -108 -35 -113 -5 -1 -25
30 -45 70 -33 64 -40 73 -73 81 -20 4 -39 6 -42 3 -8 -7 17 -97 27 -97 5 0 6
-7 3 -15 -6 -14 39 -244 56 -290 7 -17 14 -22 29 -18 28 7 27 43 -3 138 -16
51 -20 75 -12 72 9 -4 12 7 10 38 l-3 43 25 -25 c28 -28 31 -48 7 -63 -17 -11
-17 -11 0 -6 10 3 23 6 28 6 5 0 8 3 7 8 -1 4 6 21 15 39 9 18 17 45 18 60 0
25 1 26 9 8 5 -12 7 5 3 45 -6 72 -7 73 -16 63z m-124 -202 c-9 -12 -23 18
-16 35 6 17 8 17 13 -6 4 -14 5 -27 3 -29z"/>
<path d="M1980 736 c0 -16 5 -26 15 -26 8 0 15 6 15 14 0 7 -7 19 -15 26 -13
11 -15 8 -15 -14z"/>
<path d="M1500 641 c0 -21 5 -31 15 -31 8 0 15 8 15 19 0 10 -7 24 -15 31 -13
11 -15 8 -15 -19z"/>
<path d="M1128 493 c6 -2 18 -2 25 0 6 3 1 5 -13 5 -14 0 -19 -2 -12 -5z"/>
<path d="M1860 315 c-1 -5 -2 -79 -3 -162 l-2 -153 37 0 c30 0 37 4 41 23 l4
22 2 -22 c0 -13 6 -23 12 -23 6 0 8 7 5 17 -4 9 -10 37 -13 62 l-6 44 59 -7
c75 -9 61 10 -16 21 l-54 8 -13 60 c-7 33 -12 72 -13 88 0 15 -4 27 -10 27
-13 0 -13 -12 5 -99 9 -40 14 -76 11 -78 -3 -3 -8 12 -12 33 -11 62 -32 150
-34 139z m57 -207 c-3 -8 -6 -5 -6 6 -1 11 2 17 5 13 3 -3 4 -12 1 -19z m10
-50 c-3 -8 -6 -5 -6 6 -1 11 2 17 5 13 3 -3 4 -12 1 -19z"/>
<path d="M1680 135 c0 -32 3 -35 38 -41 20 -3 54 -10 75 -14 l38 -8 -3 36 c-3
36 -4 36 -63 49 -85 17 -85 17 -85 -22z"/>
<path d="M2060 120 c0 -5 7 -10 15 -10 8 0 15 5 15 10 0 6 -7 10 -15 10 -8 0
-15 -4 -15 -10z"/>
<path d="M2116 39 c-14 -11 -26 -25 -26 -30 0 -5 41 -8 93 -8 50 1 81 4 67 6
-13 3 -35 16 -47 29 -27 29 -52 30 -87 3z"/>
</g>
</svg>
